<?xml version="1.0" encoding="utf-8"?>
<!-- Generator: Adobe Illustrator 27.5.0, SVG Export Plug-In . SVG Version: 6.00 Build 0)  -->
<svg version="1.1" id="invenco_by_GVR_logo" xmlns="http://www.w3.org/2000/svg" xmlns:xlink="http://www.w3.org/1999/xlink"
	 x="0px" y="0px" viewBox="0 0 216 69.1" style="enable-background:new 0 0 216 69.1;" xml:space="preserve">
<style type="text/css">
	.st0{fill:#FFFFFF;}
</style>
<path class="st0" d="M163.4,64.6v1.2h-1.9V54.1h2.1v4.4c0.7-0.7,1.5-1.1,2.5-1.1c2.1,0,3.8,1.9,3.8,4.3c0,2.4-1.7,4.3-3.9,4.3
	C165,66,164.1,65.4,163.4,64.6z M165.6,64.1c1.2,0,2.1-1,2.1-2.4c0-1.3-0.9-2.4-2.1-2.4c-1.2,0-2.1,1-2.1,2.4
	C163.5,63.1,164.4,64.1,165.6,64.1z M170.4,68.7v-1.8c0.5,0.2,1,0.3,1.5,0.3c0.9,0,1.5-0.4,2-1.3l-3.7-8.3h2.4l2.3,6l1.8-6h2.4
	l-3.1,8.2c-0.8,2.2-2.1,3.3-3.9,3.3C171.5,69.1,170.9,69,170.4,68.7z M183.1,60.2c0-3.4,2.6-5.7,6-5.7c1,0,2.4,0.2,3.4,0.7v2.2
	c-0.8-0.6-2.1-0.8-3.1-0.8c-2.4,0-4.1,1.5-4.1,3.7c0,2.1,1.6,3.6,4,3.6c0.6,0,1.2-0.1,1.7-0.3v-2.2h-2.2v-1.9h4.3v5.5
	c-0.9,0.7-2.6,1.1-4.1,1.1C185.6,66,183.1,63.6,183.1,60.2z M193.7,54.7h2.5l3.2,8.7l3-8.7h2.5l-4.3,11.1H198L193.7,54.7z
	 M205.9,54.7h4.2c2.4,0,4.1,1.5,4.1,3.6c0,1.4-0.9,2.7-2.2,3.3l2.8,4.2h-2.6l-2.5-3.8H208v3.8h-2.2V54.7z M210,60.1
	c1.2,0,2-0.7,2-1.7c0-1-0.8-1.7-2-1.7h-2v3.5H210z M116.4,31.2c-0.6-3.7-3-6.4-6.6-6.4s-6.2,2.6-6.8,6.4H116.4z M95.7,34.4
	c0-8.7,5.9-15.7,14.3-15.7c8.1,0,13.5,6,13.5,16.1c0,0.5,0,1.1-0.1,1.6h-20.7c0.3,3.7,3.6,6.5,8.8,6.5c3.7,0,7.2-1.3,10-3.4v6.7
	c-3.2,2.2-6.8,3.2-10.4,3.2C101.8,49.4,95.7,42.9,95.7,34.4z M200.8,42.5c4.3,0,7.7-3.8,7.7-8.4c0-4.7-3.4-8.5-7.7-8.5
	c-4.3,0-7.7,3.8-7.7,8.5C193.1,38.8,196.5,42.5,200.8,42.5z M185.6,34c0-8.4,6.8-15.3,15.2-15.3c8.4,0,15.2,6.9,15.2,15.4
	c0,8.5-6.8,15.3-15.2,15.3C192.3,49.4,185.6,42.6,185.6,34z M23.2,19.4h3.9v29.3h-7.8V23.2C19.4,21.1,21.1,19.4,23.2,19.4z
	 M47.5,25.5c-3.5,0-6,3-6,7.5v15.8h-7.8V19.4h7.5v5.1c1.8-3.6,5.1-5.8,9.5-5.8c6.3,0,10.5,4.6,10.5,12.3v17.7h-7.8V32.9
	C53.5,28.2,51.3,25.5,47.5,25.5z M62.9,19.4h8.7L79,40.6l7.5-21.2h8.6L82.8,48.7h-7.6L62.9,19.4z M141.8,25.5c-3.5,0-6,3-6,7.5v15.8
	H128V19.4h7.5v5.1c1.8-3.6,5.1-5.8,9.5-5.8c6.3,0,10.5,4.6,10.5,12.3v17.7h-7.8V32.9C147.7,28.2,145.5,25.5,141.8,25.5z M159.7,34
	c0-8.3,6.3-15.3,15.3-15.3c2.6,0,5.6,0.6,7.7,1.5v6.9c-2.3-1-4.6-1.5-6.7-1.5c-5.6,0-8.8,3.7-8.8,8.4c0,4.7,3.1,8.5,8.9,8.5
	c1.9,0,4.2-0.5,6.6-1.4V48c-1.9,0.9-5.1,1.4-7.7,1.4C166,49.4,159.7,42.4,159.7,34z M23.5,12.9h6.2l-2.6,2.6h-3.9
	c-2.1,0-3.8-1.7-3.8-3.8V7.8L22,5.2v6.2C22,12.2,22.7,12.9,23.5,12.9z M27.1,7.8V0l-2.6,2.6V10c0,0.2,0.2,0.4,0.4,0.4h7.4l2.6-2.6
	H27.1z M11.4,12.9H5.2l2.6,2.6h3.9c2.1,0,3.8-1.7,3.8-3.8V7.8l-2.6-2.6v6.2C12.9,12.2,12.2,12.9,11.4,12.9z M0,7.8l2.6,2.6H10
	c0.2,0,0.4-0.2,0.4-0.4V2.6L7.8,0v7.8H0z M12.9,23.5v6.2l2.6-2.6v-3.9c0-2.1-1.7-3.8-3.8-3.8H7.8L5.2,22h6.2
	C12.2,22,12.9,22.6,12.9,23.5z M7.8,27.1v7.8l2.6-2.6v-7.4c0-0.2-0.2-0.4-0.4-0.4H2.6L0,27.1H7.8z"/>
</svg>
